<mxfile host="app.diagrams.net" modified="2024-01-10T09:20:49.693Z" agent="Mozilla/5.0 (Macintosh; Intel Mac OS X 10_15_7) AppleWebKit/537.36 (KHTML, like Gecko) Chrome/120.0.0.0 Safari/537.36" etag="68O-jpoPTHhgRiUak3Mh" version="22.1.18" type="github">
  <diagram name="第 1 页" id="nlnbh8WGOSNGeV63LDQ-">
    <mxGraphModel dx="868" dy="477" grid="1" gridSize="10" guides="1" tooltips="1" connect="1" arrows="1" fold="1" page="1" pageScale="1" pageWidth="827" pageHeight="1169" math="0" shadow="0">
      <root>
        <mxCell id="0" />
        <mxCell id="1" parent="0" />
        <mxCell id="7mmpPBQvZD6ff9gRx2Gx-7" style="rounded=0;orthogonalLoop=1;jettySize=auto;html=1;exitX=0;exitY=1;exitDx=0;exitDy=0;entryX=0.5;entryY=0;entryDx=0;entryDy=0;" edge="1" parent="1" source="7mmpPBQvZD6ff9gRx2Gx-1" target="7mmpPBQvZD6ff9gRx2Gx-3">
          <mxGeometry relative="1" as="geometry" />
        </mxCell>
        <mxCell id="7mmpPBQvZD6ff9gRx2Gx-8" style="rounded=0;orthogonalLoop=1;jettySize=auto;html=1;exitX=0.5;exitY=1;exitDx=0;exitDy=0;entryX=0.5;entryY=0;entryDx=0;entryDy=0;" edge="1" parent="1" source="7mmpPBQvZD6ff9gRx2Gx-1" target="7mmpPBQvZD6ff9gRx2Gx-4">
          <mxGeometry relative="1" as="geometry" />
        </mxCell>
        <mxCell id="7mmpPBQvZD6ff9gRx2Gx-9" style="rounded=0;orthogonalLoop=1;jettySize=auto;html=1;exitX=1;exitY=1;exitDx=0;exitDy=0;entryX=0.5;entryY=0;entryDx=0;entryDy=0;" edge="1" parent="1" source="7mmpPBQvZD6ff9gRx2Gx-1" target="7mmpPBQvZD6ff9gRx2Gx-5">
          <mxGeometry relative="1" as="geometry" />
        </mxCell>
        <mxCell id="7mmpPBQvZD6ff9gRx2Gx-1" value="Root" style="ellipse;whiteSpace=wrap;html=1;" vertex="1" parent="1">
          <mxGeometry x="270" y="190" width="110" height="50" as="geometry" />
        </mxCell>
        <mxCell id="7mmpPBQvZD6ff9gRx2Gx-15" style="rounded=0;orthogonalLoop=1;jettySize=auto;html=1;exitX=0.5;exitY=1;exitDx=0;exitDy=0;entryX=0.5;entryY=0;entryDx=0;entryDy=0;" edge="1" parent="1" source="7mmpPBQvZD6ff9gRx2Gx-3" target="7mmpPBQvZD6ff9gRx2Gx-11">
          <mxGeometry relative="1" as="geometry" />
        </mxCell>
        <mxCell id="7mmpPBQvZD6ff9gRx2Gx-16" style="rounded=0;orthogonalLoop=1;jettySize=auto;html=1;exitX=0.5;exitY=1;exitDx=0;exitDy=0;entryX=0.5;entryY=0;entryDx=0;entryDy=0;" edge="1" parent="1" source="7mmpPBQvZD6ff9gRx2Gx-3" target="7mmpPBQvZD6ff9gRx2Gx-12">
          <mxGeometry relative="1" as="geometry" />
        </mxCell>
        <mxCell id="7mmpPBQvZD6ff9gRx2Gx-3" value="Length: 4" style="rounded=0;whiteSpace=wrap;html=1;" vertex="1" parent="1">
          <mxGeometry x="140" y="260" width="90" height="30" as="geometry" />
        </mxCell>
        <mxCell id="7mmpPBQvZD6ff9gRx2Gx-17" style="rounded=0;orthogonalLoop=1;jettySize=auto;html=1;exitX=0.5;exitY=1;exitDx=0;exitDy=0;entryX=0.5;entryY=0;entryDx=0;entryDy=0;" edge="1" parent="1" source="7mmpPBQvZD6ff9gRx2Gx-4" target="7mmpPBQvZD6ff9gRx2Gx-13">
          <mxGeometry relative="1" as="geometry" />
        </mxCell>
        <mxCell id="7mmpPBQvZD6ff9gRx2Gx-4" value="Length: 5" style="rounded=0;whiteSpace=wrap;html=1;" vertex="1" parent="1">
          <mxGeometry x="240" y="260" width="90" height="30" as="geometry" />
        </mxCell>
        <mxCell id="7mmpPBQvZD6ff9gRx2Gx-18" style="rounded=0;orthogonalLoop=1;jettySize=auto;html=1;exitX=0.5;exitY=1;exitDx=0;exitDy=0;entryX=0.5;entryY=0;entryDx=0;entryDy=0;" edge="1" parent="1" source="7mmpPBQvZD6ff9gRx2Gx-5" target="7mmpPBQvZD6ff9gRx2Gx-14">
          <mxGeometry relative="1" as="geometry" />
        </mxCell>
        <mxCell id="7mmpPBQvZD6ff9gRx2Gx-5" value="Length: 10" style="rounded=0;whiteSpace=wrap;html=1;" vertex="1" parent="1">
          <mxGeometry x="414" y="260" width="90" height="30" as="geometry" />
        </mxCell>
        <mxCell id="7mmpPBQvZD6ff9gRx2Gx-6" value="&lt;b&gt;&lt;font style=&quot;font-size: 15px;&quot;&gt;...&lt;/font&gt;&lt;/b&gt;" style="text;html=1;strokeColor=none;fillColor=none;align=center;verticalAlign=middle;whiteSpace=wrap;rounded=0;" vertex="1" parent="1">
          <mxGeometry x="340" y="255" width="60" height="30" as="geometry" />
        </mxCell>
        <mxCell id="7mmpPBQvZD6ff9gRx2Gx-11" value="Send" style="rounded=0;whiteSpace=wrap;html=1;" vertex="1" parent="1">
          <mxGeometry x="90" y="320" width="90" height="30" as="geometry" />
        </mxCell>
        <mxCell id="7mmpPBQvZD6ff9gRx2Gx-44" style="edgeStyle=orthogonalEdgeStyle;rounded=0;orthogonalLoop=1;jettySize=auto;html=1;entryX=0.5;entryY=0;entryDx=0;entryDy=0;" edge="1" parent="1" source="7mmpPBQvZD6ff9gRx2Gx-12" target="7mmpPBQvZD6ff9gRx2Gx-43">
          <mxGeometry relative="1" as="geometry" />
        </mxCell>
        <mxCell id="7mmpPBQvZD6ff9gRx2Gx-12" value="Receive" style="rounded=0;whiteSpace=wrap;html=1;" vertex="1" parent="1">
          <mxGeometry x="210" y="320" width="90" height="30" as="geometry" />
        </mxCell>
        <mxCell id="7mmpPBQvZD6ff9gRx2Gx-13" value="Starting" style="rounded=0;whiteSpace=wrap;html=1;" vertex="1" parent="1">
          <mxGeometry x="330" y="320" width="90" height="30" as="geometry" />
        </mxCell>
        <mxCell id="7mmpPBQvZD6ff9gRx2Gx-14" value="*" style="rounded=0;whiteSpace=wrap;html=1;" vertex="1" parent="1">
          <mxGeometry x="450" y="320" width="90" height="30" as="geometry" />
        </mxCell>
        <mxCell id="7mmpPBQvZD6ff9gRx2Gx-19" value="" style="rounded=1;whiteSpace=wrap;html=1;" vertex="1" parent="1">
          <mxGeometry x="195" y="394" width="120" height="60" as="geometry" />
        </mxCell>
        <mxCell id="7mmpPBQvZD6ff9gRx2Gx-42" value="" style="group" vertex="1" connectable="0" parent="1">
          <mxGeometry x="200" y="417" width="110" height="30" as="geometry" />
        </mxCell>
        <mxCell id="7mmpPBQvZD6ff9gRx2Gx-32" value="" style="group" vertex="1" connectable="0" parent="7mmpPBQvZD6ff9gRx2Gx-42">
          <mxGeometry width="27.5" height="30" as="geometry" />
        </mxCell>
        <mxCell id="7mmpPBQvZD6ff9gRx2Gx-25" value="" style="rounded=0;whiteSpace=wrap;html=1;" vertex="1" parent="7mmpPBQvZD6ff9gRx2Gx-32">
          <mxGeometry width="27.5" height="7.894736842105264" as="geometry" />
        </mxCell>
        <mxCell id="7mmpPBQvZD6ff9gRx2Gx-26" value="" style="rounded=0;whiteSpace=wrap;html=1;" vertex="1" parent="7mmpPBQvZD6ff9gRx2Gx-32">
          <mxGeometry y="11.052631578947368" width="27.5" height="7.894736842105264" as="geometry" />
        </mxCell>
        <mxCell id="7mmpPBQvZD6ff9gRx2Gx-27" value="" style="rounded=0;whiteSpace=wrap;html=1;" vertex="1" parent="7mmpPBQvZD6ff9gRx2Gx-32">
          <mxGeometry y="22.105263157894736" width="27.5" height="7.894736842105264" as="geometry" />
        </mxCell>
        <mxCell id="7mmpPBQvZD6ff9gRx2Gx-33" value="" style="group" vertex="1" connectable="0" parent="7mmpPBQvZD6ff9gRx2Gx-42">
          <mxGeometry x="36.666666666666664" width="27.5" height="30" as="geometry" />
        </mxCell>
        <mxCell id="7mmpPBQvZD6ff9gRx2Gx-34" value="" style="rounded=0;whiteSpace=wrap;html=1;" vertex="1" parent="7mmpPBQvZD6ff9gRx2Gx-33">
          <mxGeometry width="27.5" height="7.894736842105264" as="geometry" />
        </mxCell>
        <mxCell id="7mmpPBQvZD6ff9gRx2Gx-35" value="" style="rounded=0;whiteSpace=wrap;html=1;" vertex="1" parent="7mmpPBQvZD6ff9gRx2Gx-33">
          <mxGeometry y="11.052631578947368" width="27.5" height="7.894736842105264" as="geometry" />
        </mxCell>
        <mxCell id="7mmpPBQvZD6ff9gRx2Gx-36" value="" style="rounded=0;whiteSpace=wrap;html=1;" vertex="1" parent="7mmpPBQvZD6ff9gRx2Gx-33">
          <mxGeometry y="22.105263157894736" width="27.5" height="7.894736842105264" as="geometry" />
        </mxCell>
        <mxCell id="7mmpPBQvZD6ff9gRx2Gx-37" value="" style="group" vertex="1" connectable="0" parent="7mmpPBQvZD6ff9gRx2Gx-42">
          <mxGeometry x="82.5" width="27.5" height="30" as="geometry" />
        </mxCell>
        <mxCell id="7mmpPBQvZD6ff9gRx2Gx-38" value="" style="rounded=0;whiteSpace=wrap;html=1;" vertex="1" parent="7mmpPBQvZD6ff9gRx2Gx-37">
          <mxGeometry width="27.5" height="7.894736842105264" as="geometry" />
        </mxCell>
        <mxCell id="7mmpPBQvZD6ff9gRx2Gx-39" value="" style="rounded=0;whiteSpace=wrap;html=1;" vertex="1" parent="7mmpPBQvZD6ff9gRx2Gx-37">
          <mxGeometry y="11.052631578947368" width="27.5" height="7.894736842105264" as="geometry" />
        </mxCell>
        <mxCell id="7mmpPBQvZD6ff9gRx2Gx-40" value="" style="rounded=0;whiteSpace=wrap;html=1;" vertex="1" parent="7mmpPBQvZD6ff9gRx2Gx-37">
          <mxGeometry y="22.105263157894736" width="27.5" height="7.894736842105264" as="geometry" />
        </mxCell>
        <mxCell id="7mmpPBQvZD6ff9gRx2Gx-41" value="&lt;b&gt;&lt;font style=&quot;font-size: 15px;&quot;&gt;...&lt;/font&gt;&lt;/b&gt;" style="text;html=1;strokeColor=none;fillColor=none;align=center;verticalAlign=middle;whiteSpace=wrap;rounded=0;" vertex="1" parent="7mmpPBQvZD6ff9gRx2Gx-42">
          <mxGeometry x="45.83333333333333" width="55" height="23.68421052631579" as="geometry" />
        </mxCell>
        <mxCell id="7mmpPBQvZD6ff9gRx2Gx-43" value="A List of Log Groups" style="text;html=1;strokeColor=none;fillColor=none;align=center;verticalAlign=middle;whiteSpace=wrap;rounded=0;" vertex="1" parent="1">
          <mxGeometry x="190" y="390" width="130" height="30" as="geometry" />
        </mxCell>
        <mxCell id="7mmpPBQvZD6ff9gRx2Gx-45" value="" style="ellipse;whiteSpace=wrap;html=1;dashed=1;" vertex="1" parent="1">
          <mxGeometry x="370" y="380" width="270" height="124" as="geometry" />
        </mxCell>
        <mxCell id="7mmpPBQvZD6ff9gRx2Gx-46" value="Log Event: Receive from node *&lt;br&gt;Log IDs: [1, 23, 25, 46, 345, ...]" style="shape=cylinder3;whiteSpace=wrap;html=1;boundedLbl=1;backgroundOutline=1;size=15;" vertex="1" parent="1">
          <mxGeometry x="405" y="402" width="206" height="80" as="geometry" />
        </mxCell>
        <mxCell id="7mmpPBQvZD6ff9gRx2Gx-47" value="Log Group" style="text;html=1;strokeColor=none;fillColor=none;align=center;verticalAlign=middle;whiteSpace=wrap;rounded=0;" vertex="1" parent="1">
          <mxGeometry x="475" y="402" width="60" height="30" as="geometry" />
        </mxCell>
        <mxCell id="7mmpPBQvZD6ff9gRx2Gx-48" style="edgeStyle=orthogonalEdgeStyle;rounded=0;orthogonalLoop=1;jettySize=auto;html=1;exitX=1;exitY=0.5;exitDx=0;exitDy=0;entryX=0.209;entryY=0.091;entryDx=0;entryDy=0;entryPerimeter=0;curved=1;" edge="1" parent="1" source="7mmpPBQvZD6ff9gRx2Gx-39" target="7mmpPBQvZD6ff9gRx2Gx-45">
          <mxGeometry relative="1" as="geometry" />
        </mxCell>
      </root>
    </mxGraphModel>
  </diagram>
</mxfile>
